<svg xmlns="http://www.w3.org/2000/svg" viewBox="0 0 512 512" role="img" aria-labelledby="title">
  <title id="title">T-Matic logo</title>
  <defs>
    <linearGradient id="g" x1="0" x2="1" y1="0" y2="1">
      <stop offset="0" stop-color="#9b0000"/>
      <stop offset="1" stop-color="#3f0503"/>
    </linearGradient>
  </defs>
  <circle cx="256" cy="256" r="246" fill="#4a0704"/>
  <circle cx="256" cy="256" r="215" fill="url(#g)" stroke="#7f1d16" stroke-width="18"/>
  <circle cx="256" cy="256" r="188" fill="#fff"/>
  <path fill="#8f120b" d="M88 260c26-96 91-154 184-170-27 14-47 33-63 57 37-30 79-48 130-53-33 14-59 34-79 63 35-24 75-37 121-36-31 11-57 29-80 55 38-15 75-18 111-10-30 7-58 21-84 43 31-7 61-5 91 6-29 4-57 14-84 31 33 2 61 12 86 30-27-4-55-1-83 8 30 12 55 30 74 55-26-13-54-20-85-20 26 19 45 43 56 72-20-20-45-35-75-44 19 25 29 53 30 85-13-25-33-47-59-65 9 30 8 60-2 90-6-28-20-54-41-78-3 32-15 59-37 83 6-29 3-58-8-88-16 30-38 52-68 68 16-27 24-56 23-87-25 24-53 38-86 43 25-18 43-42 55-72-33 15-65 19-98 10 30-10 55-27 76-52-35 4-67-3-96-22 31 1 60-7 86-24-35-8-63-25-84-52 29 10 58 12 88 4-31-18-53-42-66-72 25 18 53 28 84 30-25-27-40-57-44-89z"/>
  <path fill="#3f0503" d="M120 380h71l18-172 54 172h62l58-174 17 174h74L438 132h-82l-60 179-58-179h-82L120 380z"/>
  <path fill="#8a2118" d="M137 371h65l17-158 50 158h47l54-160 16 160h68L420 151h-51l-69 187-70-187h-58l-35 220z"/>
</svg>
